<svg xmlns="http://www.w3.org/2000/svg" viewBox="0 0 1300 900" width="1300" height="900" font-family="Inter,Arial,sans-serif">
<defs>
<linearGradient id="wall" x1="0" y1="0" x2="0" y2="1"><stop offset="0" stop-color="#f4eee4"/><stop offset="1" stop-color="#e7dccb"/></linearGradient>
<linearGradient id="floor" x1="0" y1="0" x2="0" y2="1"><stop offset="0" stop-color="#d9c8ac"/><stop offset="1" stop-color="#bfa886"/></linearGradient>
<linearGradient id="sky" x1="0" y1="0" x2="0" y2="1"><stop offset="0" stop-color="#cfe6f3"/><stop offset="1" stop-color="#eaf5f7"/></linearGradient>
<linearGradient id="light" x1="1" y1="0" x2="0" y2="1"><stop offset="0" stop-color="#fff6de" stop-opacity=".85"/><stop offset="1" stop-color="#fff6de" stop-opacity="0"/></linearGradient>
<linearGradient id="sofa" x1="0" y1="0" x2="0" y2="1"><stop offset="0" stop-color="#cdbfa8"/><stop offset="1" stop-color="#b5a58c"/></linearGradient>
<linearGradient id="wood" x1="0" y1="0" x2="0" y2="1"><stop offset="0" stop-color="#8d7355"/><stop offset="1" stop-color="#6f5a42"/></linearGradient>

</defs><rect width="1300" height="900" fill="url(#wall)"/><rect y="594.0" width="1300" height="306.0" fill="url(#floor)"/><g stroke="#a9906e" stroke-width="2" opacity=".35"><line x1="0" y1="605" x2="1300" y2="605"/><line x1="0" y1="626" x2="1300" y2="626"/><line x1="0" y1="653" x2="1300" y2="653"/><line x1="0" y1="685" x2="1300" y2="685"/><line x1="0" y1="721" x2="1300" y2="721"/><line x1="0" y1="761" x2="1300" y2="761"/><line x1="0" y1="804" x2="1300" y2="804"/><line x1="0" y1="850" x2="1300" y2="850"/></g><rect y="580.0" width="1300" height="14" fill="#efe8dc"/><rect x="780.0" y="99.0" width="442.00000000000006" height="495.00000000000006" fill="url(#sky)"/><rect x="780.0" y="455.40000000000003" width="442.00000000000006" height="138.60000000000002" fill="#cfd9c9"/><circle cx="886.08" cy="405.90000000000003" r="99.00000000000001" fill="#2a9155" opacity=".85"/><circle cx="956.8000000000001" cy="445.5" r="69.30000000000001" fill="#1d7f45" opacity=".8"/><circle cx="1133.6000000000001" cy="425.70000000000005" r="84.15000000000002" fill="#37a163" opacity=".7"/><rect x="1023.1" y="267.30000000000007" width="70.72000000000001" height="198.00000000000003" fill="#c9cfc6" opacity=".7"/><rect x="780.0" y="99.0" width="442.00000000000006" height="495.00000000000006" fill="none" stroke="#3a4650" stroke-width="9"/><line x1="1001.0" y1="99.0" x2="1001.0" y2="594.0" stroke="#3a4650" stroke-width="7"/><line x1="780.0" y1="178.20000000000002" x2="1222.0" y2="178.20000000000002" stroke="#3a4650" stroke-width="5"/><path d="M722.0 77.0 q26 247.50000000000003 0 535.0 l46 0 q-20 -247.50000000000003 0 -535.0 z" fill="#f7f2e8" opacity=".95"/><path d="M1280.0 77.0 q-26 247.50000000000003 0 535.0 l-46 0 q20 -247.50000000000003 0 -535.0 z" fill="#f7f2e8" opacity=".95"/><rect x="710.0" y="65.0" width="582.0" height="12" rx="6" fill="#8d7355"/><rect x="60" y="130" width="420" height="180" rx="10" fill="#f6f1e7" stroke="#cbbda6" stroke-width="4"/><line x1="200" y1="130" x2="200" y2="310" stroke="#ddd2c0" stroke-width="5"/><rect x="92" y="284" width="76" height="8" rx="4" fill="#9fae9f"/><line x1="340" y1="130" x2="340" y2="310" stroke="#ddd2c0" stroke-width="5"/><rect x="232" y="284" width="76" height="8" rx="4" fill="#9fae9f"/><line x1="480" y1="130" x2="480" y2="310" stroke="#ddd2c0" stroke-width="5"/><rect x="372" y="284" width="76" height="8" rx="4" fill="#9fae9f"/><rect x="60" y="310" width="420" height="94.0" fill="#e9e2d5"/><g stroke="#dcd3c3" stroke-width="3"><line x1="60" y1="310" x2="60" y2="404.0"/><line x1="130" y1="310" x2="130" y2="404.0"/><line x1="200" y1="310" x2="200" y2="404.0"/><line x1="270" y1="310" x2="270" y2="404.0"/><line x1="340" y1="310" x2="340" y2="404.0"/><line x1="410" y1="310" x2="410" y2="404.0"/></g><rect x="50" y="398.0" width="440" height="22" rx="6" fill="#39464f"/><rect x="60" y="420.0" width="420" height="174" fill="#f6f1e7" stroke="#cbbda6" stroke-width="4"/><line x1="200" y1="420.0" x2="200" y2="594.0" stroke="#ddd2c0" stroke-width="5"/><rect x="92" y="444.0" width="76" height="8" rx="4" fill="#9fae9f"/><line x1="340" y1="420.0" x2="340" y2="594.0" stroke="#ddd2c0" stroke-width="5"/><rect x="232" y="444.0" width="76" height="8" rx="4" fill="#9fae9f"/><line x1="480" y1="420.0" x2="480" y2="594.0" stroke="#ddd2c0" stroke-width="5"/><rect x="372" y="444.0" width="76" height="8" rx="4" fill="#9fae9f"/><rect x="120" y="402.0" width="120" height="14" rx="7" fill="#cfd6d8"/><path d="M300 398.0 l0 -56 q0 -22 26 -22 q26 0 26 22 l0 18" fill="none" stroke="#7d8a92" stroke-width="8"/><rect x="150" y="652.0" width="430" height="26" rx="8" fill="#39464f"/><rect x="168" y="678.0" width="394" height="120" fill="#efe7d8" stroke="#cbbda6" stroke-width="4"/><circle cx="300" cy="638.0" r="20" fill="#1d7f45" opacity=".85"/><rect x="400" y="622.0" width="90" height="30" rx="8" fill="#c9b79b"/><g><g><line x1="280" y1="0" x2="280" y2="304.0" stroke="#3a4650" stroke-width="4"/><path d="M216 364.0 L254 298.0 L306 298.0 L344 364.0 Z" fill="#3a4650"/><ellipse cx="280" cy="364.0" rx="64" ry="12" fill="#ffe9ad"/></g><g><line x1="430" y1="0" x2="430" y2="304.0" stroke="#3a4650" stroke-width="4"/><path d="M366 364.0 L404 298.0 L456 298.0 L494 364.0 Z" fill="#3a4650"/><ellipse cx="430" cy="364.0" rx="64" ry="12" fill="#ffe9ad"/></g></g><g transform="translate(1180,624.0) scale(0.8)"><path d="M-46 0 L-34 -88 L34 -88 L46 0 Z" fill="#c9b79b"/><path d="M0 -88 C-10 -150 -60 -170 -74 -206 C-30 -200 -6 -166 0 -130 C6 -170 40 -206 84 -214 C70 -166 30 -132 0 -88 Z" fill="#1d7f45"/><path d="M0 -100 C-4 -140 24 -180 66 -196 C50 -156 24 -122 0 -100 Z" fill="#27a05a"/></g><path d="M780.0 594.0 L1222.0 594.0 L390.0 900 L-65.0 900 Z" fill="url(#light)" opacity=".55"/></svg>