<svg xmlns="http://www.w3.org/2000/svg" viewBox="0 0 1500 1150" width="1500" height="1150" font-family="Inter, Helvetica, Arial, sans-serif"><rect width="1500" height="1150" fill="#f6f5f1"/><g transform="translate(100,100)"><rect x="0" y="0" width="1300" height="950" fill="#ffffff"/><rect x="0" y="0" width="600" height="600" fill="#ffffff"/><text x="300.0" y="294.0" text-anchor="middle" font-size="21" font-weight="600" letter-spacing="1.6" fill="#14202a">SÉJOUR / SALLE À MANGER</text><text x="300.0" y="322.0" text-anchor="middle" font-size="19" fill="#12924a" font-weight="600">36,0 m²</text><text x="300.0" y="344.0" text-anchor="middle" font-size="15" fill="#8b96a0">triple exposition</text><rect x="600" y="0" width="400" height="340" fill="#ffffff"/><text x="800.0" y="164.0" text-anchor="middle" font-size="21" font-weight="600" letter-spacing="1.6" fill="#14202a">CUISINE</text><text x="800.0" y="192.0" text-anchor="middle" font-size="19" fill="#12924a" font-weight="600">13,6 m²</text><text x="800.0" y="214.0" text-anchor="middle" font-size="15" fill="#8b96a0">+ cellier</text><rect x="600" y="340" width="400" height="260" fill="#ffffff"/><text x="800.0" y="464.0" text-anchor="middle" font-size="21" font-weight="600" letter-spacing="1.6" fill="#14202a">DÉGAGEMENT</text><text x="800.0" y="492.0" text-anchor="middle" font-size="19" fill="#12924a" font-weight="600">10,4 m²</text><rect x="0" y="600" width="460" height="350" fill="#ffffff"/><text x="230.0" y="769.0" text-anchor="middle" font-size="21" font-weight="600" letter-spacing="1.6" fill="#14202a">CHAMBRE 2</text><text x="230.0" y="797.0" text-anchor="middle" font-size="19" fill="#12924a" font-weight="600">16,1 m²</text><rect x="460" y="600" width="360" height="350" fill="#ffffff"/><text x="640.0" y="769.0" text-anchor="middle" font-size="21" font-weight="600" letter-spacing="1.6" fill="#14202a">CHAMBRE 3</text><text x="640.0" y="797.0" text-anchor="middle" font-size="19" fill="#12924a" font-weight="600">12,6 m²</text><rect x="820" y="600" width="120" height="350" fill="#ffffff"/><text x="880.0" y="769.0" text-anchor="middle" font-size="21" font-weight="600" letter-spacing="1.6" fill="#14202a">HALL</text><text x="880.0" y="797.0" text-anchor="middle" font-size="19" fill="#12924a" font-weight="600">4,2 m²</text><rect x="940" y="600" width="180" height="350" fill="#ffffff"/><text x="1030.0" y="769.0" text-anchor="middle" font-size="18" font-weight="600" letter-spacing="1.6" fill="#14202a">S. DE BAIN</text><text x="1030.0" y="797.0" text-anchor="middle" font-size="16" fill="#12924a" font-weight="600">6,3 m²</text><rect x="1120" y="600" width="180" height="350" fill="#ffffff"/><text x="1210.0" y="769.0" text-anchor="middle" font-size="17" font-weight="600" letter-spacing="1.6" fill="#14202a">WC + BUAND.</text><text x="1210.0" y="797.0" text-anchor="middle" font-size="15" fill="#12924a" font-weight="600">6,3 m²</text><rect x="1000" y="0" width="300" height="300" fill="#ffffff"/><text x="1150.0" y="144.0" text-anchor="middle" font-size="21" font-weight="600" letter-spacing="1.6" fill="#14202a">SUITE PARENTALE</text><text x="1150.0" y="172.0" text-anchor="middle" font-size="19" fill="#12924a" font-weight="600">18,6 m²</text><text x="1150.0" y="194.0" text-anchor="middle" font-size="15" fill="#8b96a0">avec dressing</text><rect x="1000" y="300" width="300" height="300" fill="#ffffff"/><text x="1150.0" y="444.0" text-anchor="middle" font-size="21" font-weight="600" letter-spacing="1.6" fill="#14202a">DRESSING / SDB</text><text x="1150.0" y="472.0" text-anchor="middle" font-size="19" fill="#12924a" font-weight="600">9,0 m²</text><rect x="1000" y="0" width="300" height="0" fill="none"/><rect x="50" y="50" width="260" height="100" rx="6" fill="none" stroke="#8b96a0" stroke-width="2" opacity=".55"/><rect x="50" y="210" width="170" height="160" rx="6" fill="none" stroke="#8b96a0" stroke-width="2" opacity=".55"/><rect x="340" y="380" width="210" height="180" rx="6" fill="none" stroke="#8b96a0" stroke-width="2" opacity=".55"/><rect x="620" y="20" width="360" height="60" rx="6" fill="none" stroke="#8b96a0" stroke-width="2" opacity=".55"/><rect x="620" y="250" width="130" height="70" rx="6" fill="none" stroke="#8b96a0" stroke-width="2" opacity=".55"/><rect x="1040" y="40" width="220" height="180" rx="6" fill="none" stroke="#8b96a0" stroke-width="2" opacity=".55"/><rect x="50" y="660" width="220" height="260" rx="6" fill="none" stroke="#8b96a0" stroke-width="2" opacity=".55"/><rect x="500" y="660" width="210" height="250" rx="6" fill="none" stroke="#8b96a0" stroke-width="2" opacity=".55"/><rect x="960" y="650" width="140" height="65" rx="6" fill="none" stroke="#8b96a0" stroke-width="2" opacity=".55"/><rect x="1150" y="650" width="90" height="65" rx="6" fill="none" stroke="#8b96a0" stroke-width="2" opacity=".55"/><rect x="0" y="-9.0" width="1300" height="18" fill="#1d2b36"/><rect x="0" y="941.0" width="1300" height="18" fill="#1d2b36"/><rect x="-9.0" y="0" width="18" height="950" fill="#1d2b36"/><rect x="1291.0" y="0" width="18" height="950" fill="#1d2b36"/><rect x="593.0" y="0" width="14" height="600" fill="#1d2b36"/><rect x="993.0" y="0" width="14" height="950" fill="#1d2b36"/><rect x="0" y="593.0" width="1300" height="14" fill="#1d2b36"/><rect x="600" y="333.0" width="400" height="14" fill="#1d2b36"/><rect x="453.0" y="600" width="14" height="350" fill="#1d2b36"/><rect x="813.0" y="600" width="14" height="350" fill="#1d2b36"/><rect x="933.0" y="600" width="14" height="350" fill="#1d2b36"/><rect x="1113.0" y="600" width="14" height="350" fill="#1d2b36"/><rect x="1000" y="293.0" width="300" height="14" fill="#1d2b36"/><rect x="70" y="-9.0" width="410" height="18" fill="#ffffff"/><line x1="70" y1="0" x2="480" y2="0" stroke="#12924a" stroke-width="4"/><rect x="-9.0" y="90" width="18" height="380" fill="#ffffff"/><line x1="0" y1="90" x2="0" y2="470" stroke="#12924a" stroke-width="4"/><rect x="680" y="-9.0" width="220" height="18" fill="#ffffff"/><line x1="680" y1="0" x2="900" y2="0" stroke="#12924a" stroke-width="4"/><rect x="1060" y="-9.0" width="180" height="18" fill="#ffffff"/><line x1="1060" y1="0" x2="1240" y2="0" stroke="#12924a" stroke-width="4"/><rect x="70" y="941.0" width="310" height="18" fill="#ffffff"/><line x1="70" y1="950" x2="380" y2="950" stroke="#12924a" stroke-width="4"/><rect x="520" y="941.0" width="260" height="18" fill="#ffffff"/><line x1="520" y1="950" x2="780" y2="950" stroke="#12924a" stroke-width="4"/><rect x="1291.0" y="80" width="18" height="160" fill="#ffffff"/><line x1="1300" y1="80" x2="1300" y2="240" stroke="#12924a" stroke-width="4"/><g transform="translate(640,600) rotate(-90)"><path d="M0 0 L70 0 A70 70 0 0 1 0 70" fill="none" stroke="#8b96a0" stroke-width="2.5" stroke-dasharray="0"/><rect x="0" y="-4" width="70" height="8" fill="#f6f5f1"/></g><g transform="translate(780,340) rotate(0)"><path d="M0 0 L70 0 A70 70 0 0 1 0 70" fill="none" stroke="#8b96a0" stroke-width="2.5" stroke-dasharray="0"/><rect x="0" y="-4" width="70" height="8" fill="#f6f5f1"/></g><g transform="translate(240,600) rotate(0)"><path d="M0 0 L70 0 A70 70 0 0 1 0 70" fill="none" stroke="#8b96a0" stroke-width="2.5" stroke-dasharray="0"/><rect x="0" y="-4" width="70" height="8" fill="#f6f5f1"/></g><g transform="translate(700,600) rotate(0)"><path d="M0 0 L70 0 A70 70 0 0 1 0 70" fill="none" stroke="#8b96a0" stroke-width="2.5" stroke-dasharray="0"/><rect x="0" y="-4" width="70" height="8" fill="#f6f5f1"/></g><g transform="translate(1000,430) rotate(0)"><path d="M0 0 L70 0 A70 70 0 0 1 0 70" fill="none" stroke="#8b96a0" stroke-width="2.5" stroke-dasharray="0"/><rect x="0" y="-4" width="70" height="8" fill="#f6f5f1"/></g><g transform="translate(960,600) rotate(0)"><path d="M0 0 L70 0 A70 70 0 0 1 0 70" fill="none" stroke="#8b96a0" stroke-width="2.5" stroke-dasharray="0"/><rect x="0" y="-4" width="70" height="8" fill="#f6f5f1"/></g><g transform="translate(1140,600) rotate(0)"><path d="M0 0 L70 0 A70 70 0 0 1 0 70" fill="none" stroke="#8b96a0" stroke-width="2.5" stroke-dasharray="0"/><rect x="0" y="-4" width="70" height="8" fill="#f6f5f1"/></g><g transform="translate(1000,150) rotate(0)"><path d="M0 0 L70 0 A70 70 0 0 1 0 70" fill="none" stroke="#8b96a0" stroke-width="2.5" stroke-dasharray="0"/><rect x="0" y="-4" width="70" height="8" fill="#f6f5f1"/></g><g transform="translate(840,950)"><rect x="-6" y="-9" width="104" height="18" fill="#f6f5f1"/><path d="M0 0 L0 -92 A92 92 0 0 1 92 0" fill="none" stroke="#cf2c2c" stroke-width="3"/></g><text x="886" y="1002" text-anchor="middle" font-size="18" font-weight="600" fill="#cf2c2c" letter-spacing="1.4">ENTRÉE</text><g stroke="#8b96a0" stroke-width="1.4" opacity=".85"><line x1="0" y1="-46" x2="1300" y2="-46"/><line x1="0" y1="-54" x2="0" y2="-38"/><line x1="1300" y1="-54" x2="1300" y2="-38"/></g><text x="650.0" y="-58" text-anchor="middle" font-size="17" fill="#8b96a0">13,00 m</text><g stroke="#8b96a0" stroke-width="1.4" opacity=".85"><line x1="-46" y1="0" x2="-46" y2="950"/><line x1="-54" y1="0" x2="-38" y2="0"/><line x1="-54" y1="950" x2="-38" y2="950"/></g><text x="-60" y="475.0" text-anchor="middle" font-size="17" fill="#8b96a0" transform="rotate(-90 -60 475.0)">9,50 m</text></g><text x="100" y="1118" font-size="24" font-weight="700" fill="#14202a" letter-spacing="1">TYPE F4 — 138 m²</text><text x="1400" y="1118" text-anchor="end" font-size="16" fill="#8b96a0">Plan non contractuel</text></svg>